<svg xmlns="http://www.w3.org/2000/svg" width="49" height="49" viewBox="0 0 49 49"><g><g><g><path fill="#73d7ff" d="M1.054 24.35c0-12.803 10.38-23.182 23.183-23.182 12.804 0 23.183 10.38 23.183 23.183 0 12.803-10.38 23.183-23.183 23.183-12.804 0-23.183-10.38-23.183-23.183z"/></g><g><g><path fill="#fff" d="M27.116 40.025a2.683 2.683 0 1 1-5.365-.001 2.683 2.683 0 0 1 5.365 0z"/></g><g><path fill="#fff" d="M21.355 32.102h6.178v-3.345l5.553-6.525v-8.995L29.06 7.795h-9.787l-5.068 4.095v6.455h5.692v-2.219l2.152-2.095h4.455l1.307 3.412v2.984l-5.448 4.998z"/></g><g><g><path fill="#003575" d="M29.654 24.537c-1.549 1.525-3.15 3.1-3.15 6.133a.51.51 0 0 1-.511.51h-3.119a.512.512 0 0 1-.512-.51c0-4.1 2.063-6.346 3.888-8.335 1.274-1.388 2.372-2.586 2.363-4.15L28.6 16.88c0-2.717-1.78-4.407-4.642-4.407h-.595c-2.763 0-4.54 1.604-4.636 4.185a.513.513 0 0 1-.512.492H15.08a.511.511 0 0 1-.51-.505c-.029-2.436.648-4.393 2.01-5.813 1.564-1.636 3.967-2.5 6.945-2.5h.272c2.979 0 5.38.864 6.945 2.5 1.442 1.502 2.115 3.604 2 6.25-.002.02 0 .04 0 .054l.013 1.06c-.007 3.303-1.51 4.78-3.101 6.342zm5.182-7.413c.13-3.168-.762-5.846-2.58-7.744-1.97-2.057-4.895-3.144-8.459-3.144h-.272c-3.565 0-6.49 1.087-8.458 3.144-1.826 1.907-2.72 4.576-2.58 7.743v1.073c0 .578.47 1.048 1.047 1.048h6.236c.578 0 1.048-.47 1.048-1.048V16.88c0-1.535.856-2.312 2.545-2.312h.595c1.69 0 2.546.784 2.546 2.324l.014 1.312c.004.687-.68 1.483-1.812 2.717-1.873 2.04-4.438 4.833-4.438 9.75v1.56c0 .576.47 1.047 1.047 1.047h6.236a1.05 1.05 0 0 0 1.049-1.048v-1.56c0-2.154 1.112-3.25 2.523-4.638 1.656-1.628 3.717-3.655 3.726-7.847l-.013-1.032z"/></g><g><path fill="#003575" d="M24.434 42.095a2.073 2.073 0 0 1-2.072-2.071 2.072 2.072 0 0 1 4.142 0 2.073 2.073 0 0 1-2.07 2.07zm0-6.236a4.17 4.17 0 0 0-4.166 4.165 4.17 4.17 0 0 0 4.166 4.166 4.17 4.17 0 0 0 4.166-4.166 4.17 4.17 0 0 0-4.166-4.165z"/></g><g><path fill="#003575" d="M24.434 46.772c-12.318 0-22.34-10.021-22.34-22.338 0-12.318 10.022-22.34 22.34-22.34s22.339 10.022 22.339 22.34c0 12.317-10.021 22.338-22.34 22.338zm0-46.772C10.96 0 0 10.96 0 24.434c0 13.472 10.96 24.433 24.434 24.433 13.473 0 24.433-10.961 24.433-24.433C48.867 10.96 37.907 0 24.434 0z"/></g></g></g></g></g></svg>